# xmcd
#
# Track frame offsets: 
#        150
#        5226
#        21409
#        37447
#        52780
#        74883
#        100387
#        116765
#        140760
#        170013
#        185273
#        200510
#
# Disc length: 2928 seconds
#
# Revision: 2
# Processed by: cddbd v1.5.2PL0 Copyright (c) Steve Scherf et al.
# Submitted via: ExactAudioCopy v0.95b3
#
DISCID=bf0b6e0c
DTITLE=WDR Big Band Köln - The World Of Duke Ellington Vol. 1
DYEAR=1994
DGENRE=Jazz
TTITLE0=Take The A-Train
TTITLE1=Rockin' In Rythm
TTITLE2=Creole Love Call
TTITLE3=It Don't Mean A Thing
TTITLE4=Black And Tan Fantasy
TTITLE5=I Like The Sunrise
TTITLE6=Don't Get Around Much Anymore
TTITLE7=East St. Louis Toodle-oo
TTITLE8=Sophisticated Lady
TTITLE9=The Blues
TTITLE10=Jump For Joy
TTITLE11=Meditation
EXTD=YEAR: 1994
EXTT0=
EXTT1=
EXTT2=
EXTT3=
EXTT4=
EXTT5=
EXTT6=
EXTT7=
EXTT8=
EXTT9=
EXTT10=
EXTT11=
PLAYORDER=
